# xmcd
#
# Track frame offsets:
# 200
# 19717
# 32245
# 57645
# 79592
# 106132
# 118177
# 137572
# 163557
# 182767
#
# Disc length: 2713 seconds
#
#
# Revision: 1
# Processed by: cddbd v1.5.2PL0 Copyright (c) Steve Scherf et al.
# Submitted via: FreeRIP 2.951 
#
DISCID=7f0a970a
DTITLE=Sean Wilson And Friends - 50 Great Party Hits
DYEAR=1900
DGENRE=Country
TTITLE0=Sean Wilson - Medley: Rose Of Moray-Spanish Lady-Take Me Back To Castlebar-Hello Patsy Fagan-Dancing Jig
TTITLE1=Sean Wilson - Medley: When Irish Eyes Are Smiling-My Wild Irish Rose-Galway Shawl-Three Leaf Ahamrock
TTITLE2=Sean Wilson - Medley: You Are My Sunshine-Down By The Riverside-It's A Long Way To Tipperary-Pack Up Your Troubles-Whiskey In Th
TTITLE3=Sean Wilson - Medley: Black Velvet Band-Village Where I Went To School -Whiskey On A Sunday-Quare Bungke Rye-Shamrok From Gleno
TTITLE4=Sean Wilson - Medley: Achey Breaky Heart-Just Walk On By-I Wanna Dance With You-Crystal Chandeliers-Little Ole Wine Drinker Me
TTITLE5=Sean Wilson - Medley: Come Into The Parlour-Aul Lammas Fair-McNamara's Band
TTITLE6=Sean Wilson - Medley: Same Sweet Girl-Gambler-On TheWall- Lfe Is What You Make It-Try A Little Kindness
TTITLE7=Sean Wilson - Medley: Tiger By The Tail-Act Naturally-Love's Gonna Live here-Open Up YourHeart-Forever And Ever- Foolin Round
TTITLE8=Sean Wilson - Medley: It Doesnt Matter AnymoreOh Boy-Bye Bye Love-Hello Mary lou
TTITLE9=Sean Wilson - Medley: If Yoour Irish-On The One road-Eileen Og-Road To The Isles-With MeShillelagh-Washerwoman
EXTD=
EXTT0=
EXTT1=
EXTT2=
EXTT3=
EXTT4=
EXTT5=
EXTT6=
EXTT7=
EXTT8=
EXTT9=
PLAYORDER=
